<?xml version="1.0" standalone="no"?>
<!DOCTYPE svg>
<svg version="1.0" xmlns="http://www.w3.org/2000/svg"
 width="980.000000pt" height="782.000000pt" viewBox="0 0 980.000000 782.000000"
 preserveAspectRatio="xMidYMid meet">

<g transform="translate(0.000000,782.000000) scale(0.100000,-0.100000)"
fill="#000000" stroke="none">
<path d="M3318 7787 c-142 -49 -248 -148 -439 -413 l-133 -184 -783 0 -783 0
-32 -29 -33 -29 -3 -286 -3 -286 -93 0 c-265 0 -506 -93 -676 -260 -164 -162
-262 -365 -317 -660 -17 -89 -18 -231 -18 -2280 l0 -2185 22 -101 c87 -389
282 -686 583 -883 162 -106 336 -164 542 -181 150 -13 7344 -13 7495 0 216 17
385 76 559 192 287 192 482 492 567 872 l22 101 0 2175 c0 2054 -1 2181 -18
2283 -48 283 -147 496 -306 657 -117 118 -243 190 -421 238 l-95 26 -725 6
-724 5 -337 475 c-430 607 -508 691 -698 750 -62 20 -93 20 -1575 20 l-1511
-1 -67 -22z m3048 -403 c59 -28 128 -116 474 -605 184 -260 355 -493 380 -517
24 -23 74 -57 110 -75 l65 -32 745 -6 c657 -5 752 -7 803 -22 211 -61 333
-201 405 -462 l27 -100 3 -2158 c2 -2150 2 -2157 -18 -2259 -72 -352 -308
-620 -620 -705 -62 -17 -259 -18 -3840 -18 -3581 0 -3778 1 -3840 18 -312 85
-548 353 -619 704 -21 100 -21 120 -21 2210 0 1821 2 2122 15 2208 47 316 193
504 440 566 37 9 249 14 790 18 l740 6 65 32 c36 18 84 51 108 74 24 23 202
263 397 533 371 513 393 542 452 582 l36 24 1434 0 c1306 0 1438 -1 1469 -16z
m-3917 -601 c0 -5 -35 -55 -78 -113 l-78 -105 -386 -3 -387 -2 0 115 0 115
465 0 c256 0 465 -3 464 -7z"/>
<path d="M4478 5855 c-464 -64 -886 -245 -1247 -535 -125 -101 -327 -309 -422
-435 -412 -549 -582 -1234 -473 -1905 21 -127 77 -341 120 -459 85 -228 238
-498 398 -701 92 -116 309 -326 436 -422 357 -267 732 -422 1185 -489 137 -21
531 -18 675 4 557 87 1051 340 1430 733 196 204 327 389 450 639 121 245 193
478 237 762 24 156 23 517 -1 678 -125 835 -629 1527 -1381 1896 -247 121
-501 198 -778 234 -145 19 -491 19 -629 0z m632 -410 c923 -142 1637 -877
1756 -1808 20 -159 15 -451 -11 -592 -81 -450 -272 -821 -585 -1135 -325 -326
-732 -530 -1192 -595 -138 -20 -430 -19 -567 0 -1265 185 -2070 1427 -1717
2650 140 488 469 920 907 1192 250 156 579 268 889 302 115 13 392 5 520 -14z"/>
<path d="M4669 5010 c-197 -21 -390 -79 -569 -171 -435 -225 -733 -614 -842
-1101 -20 -91 -23 -129 -23 -323 0 -193 3 -232 23 -323 32 -143 65 -238 127
-369 285 -598 916 -961 1573 -905 285 25 527 110 772 273 123 81 333 290 417
414 125 185 219 412 259 630 28 150 26 442 -5 585 -143 671 -655 1167 -1316
1275 -117 19 -308 26 -416 15z m396 -277 c255 -44 496 -167 687 -351 357 -344
495 -827 373 -1307 -106 -420 -437 -781 -848 -924 -159 -55 -273 -74 -452 -74
-233 0 -405 41 -608 145 -312 160 -554 443 -662 772 -53 161 -68 280 -62 470
4 136 9 179 35 276 179 690 836 1114 1537 993z"/>
<path d="M8031 5620 c-96 -35 -172 -106 -218 -207 -23 -49 -28 -71 -28 -148 0
-82 3 -96 33 -157 67 -137 187 -211 342 -212 75 -1 93 3 152 31 303 143 285
575 -28 693 -72 26 -179 26 -253 0z"/>
</g>
</svg>
